<svg width="20" height="20" viewBox="0 0 20 20" fill="none" xmlns="http://www.w3.org/2000/svg">
<g opacity="0.6">
<path d="M7.86106 7.74707C7.39606 7.74707 7.01758 8.12937 7.01758 8.60141C7.01758 9.0734 7.39602 9.45606 7.86106 9.45606C8.32668 9.45606 8.70504 9.0734 8.70504 8.60141C8.70504 8.12937 8.32672 7.74707 7.86106 7.74707Z" fill="#4BB5A0"/>
<path d="M12.1326 7.74023C11.6631 7.74023 11.2822 8.1257 11.2822 8.60129C11.2822 9.07688 11.6631 9.46235 12.1326 9.46235C12.6015 9.46235 12.9824 9.07688 12.9824 8.60129C12.9823 8.12566 12.6015 7.74023 12.1326 7.74023Z" fill="#4BB5A0"/>
<path d="M18.2065 14.8467C18.7227 13.8144 18.9897 12.6469 18.9921 11.3771L20 11.143L19.7093 9.89095L18.9017 10.0785C18.8052 9.38673 18.6327 8.69978 18.3891 8.03302C19.1072 6.00251 19.1852 3.65016 18.6032 1.36262L18.4416 0.727539L17.8098 0.901407C17.5372 0.976485 15.1698 1.65117 14.0425 2.74125C13.8762 2.64477 13.7073 2.55325 13.5357 2.46805C12.405 1.90707 11.2154 1.62266 9.99994 1.62266C8.78443 1.62266 7.59486 1.90707 6.46423 2.46805C6.29251 2.55325 6.12368 2.64473 5.95736 2.74129C4.83001 1.65121 2.46274 0.976446 2.19004 0.901446L1.61075 0.780659L1.39668 1.36266C0.814689 3.65016 0.892697 6.00251 1.61075 8.03306C1.36727 8.69982 1.19477 9.38677 1.09817 10.0785L0.290821 9.89103L0 11.143L1.00778 11.377C1.01012 12.6469 1.27719 13.8144 1.7934 14.8467L0 15.2632L0.290743 16.5153L2.51598 15.9985C2.85227 16.4349 3.24301 16.838 3.68696 17.204C5.30376 18.5371 7.5458 19.2713 9.99994 19.2713C12.4541 19.2713 14.696 18.5371 16.3129 17.204C16.7569 16.8379 17.1476 16.4348 17.4839 15.9985L19.7093 16.5153L20 15.2632L18.2065 14.8467ZM2.49434 2.34285C3.22755 2.59422 4.24661 3.00989 4.86122 3.48981C4.4202 3.84008 4.00372 4.23462 3.61512 4.67247C3.18001 5.1627 2.79419 5.69255 2.46094 6.25013C2.22942 5.00634 2.23895 3.67262 2.49434 2.34285ZM9.16142 13.6455C8.82889 13.3132 8.6549 12.9643 8.6549 12.7915C8.6549 12.6371 8.68135 12.626 8.77967 12.5846C9.05994 12.4667 9.61037 12.4531 10 12.4531C10.3897 12.4531 10.9401 12.4667 11.2203 12.5846C11.3187 12.626 11.3451 12.6371 11.3451 12.7915C11.3451 12.9643 11.1711 13.3131 10.8386 13.6455C10.5116 13.9723 10.1625 14.1487 10 14.1487C9.83752 14.1487 9.48842 13.9723 9.16142 13.6455ZM16.9068 14.5449L14.4299 13.9698L14.1392 15.2218L16.0733 15.6709C15.8945 15.8608 15.7021 16.0417 15.4951 16.2123C14.2473 17.2412 12.5424 17.8539 10.6427 17.9667V15.3057C11.1473 15.111 11.5583 14.7435 11.7472 14.5547C12.0127 14.2892 12.6305 13.5861 12.6305 12.7915C12.6305 12.1414 12.3067 11.6472 11.7188 11.3999C11.3269 11.235 10.8289 11.1677 9.99998 11.1677C9.17103 11.1677 8.67303 11.235 8.28115 11.3999C7.69326 11.6472 7.36947 12.1414 7.36947 12.7915C7.36947 13.5861 7.98716 14.2892 8.25275 14.5547C8.44166 14.7435 8.85267 15.111 9.35728 15.3057V17.9667C7.45748 17.854 5.75259 17.2412 4.50466 16.2123C4.29774 16.0417 4.10532 15.8608 3.92657 15.6709L5.86079 15.2218L5.57001 13.9698L3.09297 14.5449C2.61313 13.7008 2.34458 12.7351 2.29997 11.6771L5.57001 12.4365L5.86075 11.1844L2.35528 10.3703C2.57321 8.62404 3.35583 6.90099 4.57645 5.52563C6.07462 3.83766 8.00068 2.90801 9.9999 2.90801C11.9991 2.90801 13.9252 3.83766 15.4234 5.52563C16.644 6.90099 17.4266 8.62412 17.6445 10.3704L14.1392 11.1844L14.43 12.4365L17.6998 11.6772C17.6552 12.7351 17.3867 13.7007 16.9068 14.5449ZM17.5389 6.25005C17.2057 5.69251 16.8198 5.16266 16.3848 4.67239C15.9962 4.23454 15.5797 3.84005 15.1387 3.48985C15.7526 3.01106 16.7721 2.59508 17.5056 2.34325C17.7609 3.67286 17.7704 5.00641 17.5389 6.25005Z" fill="#4BB5A0"/>
</g>
</svg>
