<svg width="20" height="20" viewBox="0 0 20 20" fill="none" xmlns="http://www.w3.org/2000/svg">
<g clip-path="url(#clip0)">
<path d="M19.1698 5.71319C18.5333 4.6416 17.6391 3.62226 17.0354 3.0875C15.7174 1.9198 14.618 1.94824 14.0799 2.06918C13.8538 2.12 13.6461 2.20379 13.4634 2.31554C12.5244 1.61871 11.382 1.27734 9.99998 1.27734C8.61795 1.27734 7.47557 1.61871 6.53659 2.31558C6.35378 2.20383 6.1462 2.12 5.92011 2.06922C5.3821 1.94832 4.28253 1.91984 2.96465 3.0875C2.36086 3.6223 1.46672 4.64163 0.830157 5.71323C-0.0316379 7.16405 -0.223591 8.33768 0.259611 9.20162C0.84961 10.2564 1.74453 10.5263 2.46699 10.5929C2.28941 11.2826 2.17976 12.0203 2.17976 12.9396C2.17976 14.1581 2.45711 15.2063 3.00418 16.0553C3.48507 16.8017 4.17742 17.3994 5.06195 17.8318C6.69624 18.6307 8.66292 18.7231 10 18.7231C11.3371 18.7231 13.3038 18.6307 14.9381 17.8318C15.8226 17.3994 16.515 16.8017 16.9959 16.0553C17.5429 15.2063 17.8203 14.158 17.8203 12.9396C17.8203 12.0204 17.7106 11.2826 17.5331 10.5929C18.2555 10.5263 19.1505 10.2563 19.7404 9.20159C20.2236 8.33772 20.0316 7.16405 19.1698 5.71319ZM2.84679 9.38717C2.20742 9.37037 1.6875 9.24659 1.32809 8.60405C1.08426 8.16807 1.28641 7.34229 1.88277 6.33835C2.44875 5.3855 3.26113 4.46027 3.77644 4.00374C4.62745 3.24968 5.26542 3.20816 5.56558 3.24836C4.67234 4.33726 4.12484 5.75241 3.66699 7.12831C3.47738 7.69807 3.29464 8.18452 3.11785 8.65502C3.02332 8.90674 2.93238 9.14885 2.84679 9.38717ZM9.20135 13.4008C8.88467 13.0843 8.71893 12.752 8.71893 12.5874C8.71893 12.4404 8.74413 12.4299 8.83776 12.3905C9.10467 12.2782 9.62889 12.2652 9.99998 12.2652C10.3711 12.2652 10.8953 12.2782 11.1622 12.3905C11.2558 12.4299 11.281 12.4405 11.281 12.5874C11.281 12.752 11.1153 13.0843 10.7986 13.4008C10.4872 13.7121 10.1547 13.88 9.99994 13.88C9.84518 13.88 9.5128 13.7121 9.20135 13.4008ZM14.4005 16.732C13.461 17.1912 12.2173 17.4402 10.6121 17.4896V14.982C11.0927 14.7965 11.4841 14.4465 11.664 14.2667C11.917 14.014 12.5053 13.3443 12.5053 12.5875C12.5053 11.9684 12.1969 11.4977 11.637 11.2621C11.2638 11.1051 10.7895 11.041 10 11.041C9.21057 11.041 8.73627 11.1051 8.36303 11.2621C7.80315 11.4977 7.49475 11.9683 7.49475 12.5875C7.49475 13.3443 8.08307 14.0139 8.33596 14.2667C8.51588 14.4466 8.90733 14.7966 9.38791 14.982V17.4896C7.78268 17.4403 6.53901 17.1913 5.59952 16.732C4.1221 16.0098 3.4039 14.7693 3.4039 12.9396C3.4039 11.3743 3.7646 10.4142 4.26378 9.08553C4.43617 8.62674 4.63148 8.10674 4.82847 7.51483C5.9105 4.26343 7.05511 2.50152 9.99998 2.50152C12.9449 2.50152 14.0895 4.26347 15.1715 7.51483C15.3684 8.10678 15.5638 8.62674 15.7361 9.08553C16.2353 10.4142 16.596 11.3742 16.596 12.9396C16.5961 14.7693 15.8779 16.0098 14.4005 16.732ZM18.672 8.60405C18.3125 9.24666 17.7926 9.37034 17.1532 9.38717C17.0676 9.14881 16.9767 8.90674 16.8822 8.65502C16.7054 8.18456 16.5227 7.69807 16.3331 7.12831C15.8752 5.75241 15.3277 4.33726 14.4345 3.24836C14.7346 3.20824 15.3726 3.24968 16.2237 4.00378C16.739 4.46023 17.5513 5.38542 18.1173 6.33827C18.7136 7.34229 18.9158 8.16811 18.672 8.60405Z" fill="#4BB5A0"/>
<path d="M7.96295 7.7832C7.5201 7.7832 7.15967 8.1473 7.15967 8.59687C7.15967 9.0464 7.52006 9.41082 7.96295 9.41082C8.40638 9.41082 8.76673 9.04637 8.76673 8.59687C8.76673 8.1473 8.40638 7.7832 7.96295 7.7832Z" fill="#4BB5A0"/>
<path d="M12.0311 7.77734C11.5839 7.77734 11.2212 8.14449 11.2212 8.59738C11.2212 9.05027 11.5839 9.41742 12.0311 9.41742C12.4777 9.41742 12.8404 9.05027 12.8404 8.59738C12.8404 8.14449 12.4777 7.77734 12.0311 7.77734Z" fill="#4BB5A0"/>
</g>
<defs>
<clipPath id="clip0">
<rect width="20" height="20" fill="white"/>
</clipPath>
</defs>
</svg>
