<svg width="20" height="20" viewBox="0 0 20 20" fill="none" xmlns="http://www.w3.org/2000/svg">
<path d="M13.9451 13.2841V12.1123C13.2126 12.1122 12.5648 12.481 12.1768 13.0425L12.1521 13.0177C11.3774 12.243 10.3474 11.8164 9.25185 11.8164C8.15627 11.8164 7.12626 12.243 6.35161 13.0177L5.10864 14.2607L6.35161 15.5037C7.1263 16.2784 8.15627 16.705 9.25185 16.705C10.3474 16.705 11.3774 16.2784 12.1521 15.5037L12.1768 15.4789C12.5648 16.0404 13.2126 16.4091 13.9451 16.4091V15.2373C13.4067 15.2373 12.9686 14.7992 12.9686 14.2607C12.9686 13.7222 13.4067 13.2841 13.9451 13.2841ZM11.3235 14.675C10.7701 15.2284 10.0344 15.5331 9.25189 15.5331C8.46935 15.5331 7.73361 15.2284 7.18029 14.675L6.76599 14.2607L7.18029 13.8463C7.73365 13.293 8.46935 12.9882 9.25189 12.9882C10.0344 12.9882 10.7701 13.293 11.3235 13.8463L11.7378 14.2606L11.3235 14.675Z" fill="#4BB5A0"/>
<path d="M4.57031 11.8164C5.00178 11.8164 5.35156 11.4666 5.35156 11.0352C5.35156 10.6037 5.00178 10.2539 4.57031 10.2539C4.13884 10.2539 3.78906 10.6037 3.78906 11.0352C3.78906 11.4666 4.13884 11.8164 4.57031 11.8164Z" fill="#4BB5A0"/>
<path d="M17.3054 2.37605C17.1716 2.22566 15.9766 0.800781 10 0.800781C4.12109 0.800781 2.83055 2.22387 2.69715 2.3732C0.957773 4.23438 0 6.6573 0 9.19922C0 11.8703 1.0402 14.3815 2.92891 16.2703C4.8177 18.159 7.32891 19.1992 10 19.1992C12.6711 19.1992 15.1823 18.159 17.0711 16.2703C18.9598 14.3815 20 11.8703 20 9.19922C20 6.65871 19.0431 4.23699 17.3054 2.37605ZM10 1.97266C14.9219 1.97266 16.3121 3.03109 16.4189 3.14453C16.3121 3.25797 15 4.31641 10 4.31641C5.01953 4.31641 3.68789 3.25797 3.58105 3.14453C3.68789 3.03109 5.10887 1.97266 10 1.97266ZM2.83234 4.05078C2.9427 4.14984 4.375 5.48828 10 5.48828C15.6641 5.48828 17.0572 4.14988 17.1675 4.05086C17.7463 4.85418 18.1823 5.74297 18.4621 6.68238C17.6227 6.74375 17.1039 6.92184 16.6358 7.08254C16.0983 7.26711 15.5906 7.44141 14.5507 7.44141C13.5107 7.44141 13.003 7.26707 12.4655 7.08254C11.8888 6.88457 11.2353 6.66016 9.99977 6.66016C8.7643 6.66016 8.11078 6.88457 7.53414 7.08254C6.99664 7.26711 6.48898 7.44141 5.4491 7.44141C4.40922 7.44141 3.90152 7.26711 3.36402 7.08254C2.89598 6.92184 2.37723 6.74375 1.53777 6.68238C1.81758 5.74289 2.25355 4.8541 2.83234 4.05078ZM10 18.0273C5.13215 18.0273 1.17188 14.0671 1.17188 9.19922C1.17188 8.74082 1.20738 8.28684 1.27668 7.84051C2.07012 7.87742 2.51559 8.03023 2.98352 8.1909C3.56012 8.38887 4.21367 8.61328 5.44914 8.61328C5.62059 8.61328 5.78043 8.60883 5.93082 8.60086C5.88539 8.69992 5.85938 8.80969 5.85938 8.92578C5.85938 9.35727 6.20914 9.70703 6.64062 9.70703C7.07211 9.70703 7.42188 9.35727 7.42188 8.92578C7.42188 8.72645 7.3466 8.54516 7.22375 8.40711C7.48105 8.33973 7.70316 8.26355 7.91477 8.1909C8.45227 8.00633 8.95996 7.83203 9.9998 7.83203C11.0397 7.83203 11.5474 8.00633 12.085 8.1909C12.6616 8.38887 13.3152 8.61328 14.5507 8.61328C15.7862 8.61328 16.4398 8.38887 17.0164 8.1909C17.4843 8.03023 17.9298 7.87742 18.7233 7.84051C18.7926 8.28684 18.8281 8.74082 18.8281 9.19922C18.8281 14.0671 14.8679 18.0273 10 18.0273Z" fill="#4BB5A0"/>
</svg>
