<svg width="20" height="20" viewBox="0 0 20 20" fill="none" xmlns="http://www.w3.org/2000/svg">
<path d="M17.7977 7.31059C17.4464 5.5073 16.9242 4.09254 16.2013 2.98547C14.8712 0.948672 12.9009 0 10.0004 0C7.09995 0 5.12956 0.948672 3.79948 2.98547C3.07655 4.09254 2.55437 5.5073 2.20304 7.31059C1.84612 9.14262 1.67261 11.335 1.67261 14.013V14.3023L1.89651 14.4855C1.98019 14.5539 4.01065 16.203 9.67358 19.7929L10.0004 20L10.3272 19.7929C15.9902 16.203 18.0206 14.5539 18.1043 14.4855L18.3282 14.3024V14.0131C18.3282 11.3351 18.1547 9.14266 17.7977 7.31059ZM10.0004 18.5542C5.66003 15.7915 3.54366 14.217 2.89413 13.7167C2.91878 8.89422 3.54999 5.6002 4.82163 3.65293C5.92003 1.9709 7.51722 1.22078 10.0004 1.22078C12.4836 1.22078 14.0808 1.9709 15.1792 3.65293C16.4508 5.6002 17.082 8.89422 17.1067 13.7167C16.4568 14.2172 14.3405 15.7917 10.0004 18.5542Z" fill="#4BB5A0"/>
<path d="M11.6727 6.97758C10.9916 6.22691 10.2976 5.88215 10.2684 5.86781L9.99991 5.73633L9.7314 5.86785C9.70218 5.88219 9.00823 6.22691 8.3271 6.97762C7.42487 7.97199 6.948 9.22527 6.948 10.602C6.948 13.8169 9.47183 16.2538 9.57933 16.3559L9.99991 16.7559L10.4205 16.3559C10.528 16.2537 13.0518 13.8169 13.0518 10.602C13.0518 9.22527 12.5749 7.97195 11.6727 6.97758ZM9.99991 15.0086C9.34784 14.2304 8.16878 12.5532 8.16878 10.602C8.16878 8.58031 9.43159 7.50637 9.99976 7.12551C10.5697 7.50762 11.831 8.58156 11.831 10.602C11.831 12.5532 10.652 14.2304 9.99991 15.0086Z" fill="#4BB5A0"/>
<path d="M6.741 4.65625C6.29936 4.65625 5.93994 5.01934 5.93994 5.46766C5.93994 5.91594 6.29932 6.27934 6.741 6.27934C7.18322 6.27934 7.54256 5.9159 7.54256 5.46766C7.54252 5.0193 7.18322 4.65625 6.741 4.65625Z" fill="#4BB5A0"/>
<path d="M13.2528 4.65039C12.8069 4.65039 12.4452 5.01648 12.4452 5.46813C12.4452 5.91977 12.8069 6.28586 13.2528 6.28586C13.6982 6.28586 14.0599 5.91977 14.0599 5.46813C14.0598 5.01648 13.6982 4.65039 13.2528 4.65039Z" fill="#4BB5A0"/>
</svg>
