<svg width="20" height="20" viewBox="0 0 20 20" fill="none" xmlns="http://www.w3.org/2000/svg">
<g clip-path="url(#clip0)">
<path d="M16.1921 13.3908L19.526 12.6167L19.249 11.424L16.4415 12.0759C16.5061 11.5844 16.5395 11.0893 16.5395 10.597C16.5395 9.86348 16.4664 9.16602 16.3238 8.51161C17.4841 8.03621 18.504 7.37239 19.0636 6.71469C19.7433 5.9159 20.0713 4.9002 19.987 3.85477C19.9028 2.80934 19.4166 1.85926 18.6177 1.17957C17.8189 0.499886 16.8034 0.172074 15.7577 0.256136C14.7123 0.340394 13.7622 0.826644 13.0826 1.62547C12.705 2.06922 12.3583 2.71782 12.0808 3.48942C11.4262 3.26887 10.7261 3.15414 10 3.15414C9.27387 3.15414 8.57375 3.26891 7.91918 3.48942C7.64176 2.71782 7.29504 2.06922 6.91743 1.62547C6.23778 0.826683 5.2877 0.340355 4.24227 0.256136C3.19672 0.171917 2.18114 0.499847 1.38231 1.17953C0.583481 1.85922 0.0971919 2.8093 0.0129732 3.85473C-0.0712455 4.9002 0.256645 5.91586 0.936411 6.71465C1.49598 7.37231 2.5159 8.03618 3.67625 8.51157C3.53356 9.16598 3.46051 9.86344 3.46051 10.5969C3.46051 11.0892 3.49391 11.5843 3.55848 12.0759L0.750981 11.4239L0.474028 12.6167L3.80797 13.3909C3.98329 14.0952 4.22196 14.7794 4.51887 15.423L0.474028 16.3623L0.750981 17.555L5.11942 16.5406C5.1784 16.6356 5.23852 16.7297 5.30032 16.8218C5.8977 17.7129 6.58961 18.4202 7.3568 18.9241C8.19739 19.4762 9.08672 19.7561 10.0001 19.7561C10.9134 19.7561 11.8028 19.4762 12.6434 18.9241C13.4106 18.4202 14.1024 17.7129 14.6998 16.8218C14.7616 16.7297 14.8217 16.6357 14.8807 16.5406L19.2492 17.555L19.5261 16.3623L15.4813 15.423C15.7781 14.7794 16.0168 14.0951 16.1921 13.3908ZM14.0151 2.41899C14.4829 1.86926 15.1367 1.53461 15.8561 1.47668C16.5749 1.41868 17.2744 1.64438 17.8242 2.11211C18.3738 2.57985 18.7086 3.23368 18.7665 3.95305C18.8245 4.6725 18.5988 5.37145 18.1311 5.92114C17.7209 6.40317 16.895 6.93617 15.9723 7.33059C15.6562 6.50899 15.211 5.77789 14.6427 5.15754C14.2174 4.69336 13.7318 4.30457 13.2006 3.99633C13.4323 3.33067 13.7249 2.76012 14.0151 2.41899ZM4.0277 7.33067C3.105 6.93621 2.27907 6.40321 1.86895 5.92118C1.40122 5.37145 1.17551 4.67254 1.23352 3.95309C1.29149 3.23364 1.62614 2.57985 2.17582 2.11215C2.72555 1.64442 3.42461 1.41887 4.14391 1.47672C4.86336 1.53469 5.51715 1.86934 5.98489 2.41903C6.27512 2.76008 6.56774 3.33071 6.79946 3.99641C6.26821 4.30465 5.78262 4.69344 5.35735 5.15762C4.78899 5.77797 4.34379 6.50907 4.0277 7.33067ZM15.158 12.3739L12.7925 12.9232L13.0694 14.1159L14.8341 13.7061C14.678 14.2034 14.4855 14.6841 14.2601 15.1394L13.0695 14.8629L12.7925 16.0557L13.6104 16.2456C12.588 17.7208 11.3098 18.5317 10 18.5317C8.69024 18.5317 7.41207 17.7208 6.38973 16.2456L7.20758 16.0557L6.93063 14.863L5.73996 15.1395C5.51457 14.6842 5.32207 14.2034 5.16602 13.7062L6.93067 14.116L7.20762 12.9232L4.84207 12.3739C4.73895 11.7868 4.68496 11.1899 4.68496 10.5969C4.68496 8.70446 5.22969 7.10957 6.26024 5.98473C7.20911 4.94899 8.53727 4.37864 10 4.37864C11.4628 4.37864 12.791 4.94903 13.7398 5.98473C14.7704 7.10957 15.3151 8.7045 15.3151 10.5969C15.3151 11.1899 15.2611 11.7869 15.158 12.3739Z" fill="#4BB5A0"/>
<path d="M8.76636 8.59613C8.76636 8.14645 8.40593 7.78223 7.96241 7.78223C7.51944 7.78223 7.15894 8.14641 7.15894 8.59613C7.15894 9.04574 7.51944 9.41027 7.96241 9.41027C8.40593 9.41027 8.76636 9.04574 8.76636 8.59613Z" fill="#4BB5A0"/>
<path d="M12.0315 7.77637C11.5842 7.77637 11.2214 8.14359 11.2214 8.5966C11.2214 9.04961 11.5842 9.41684 12.0315 9.41684C12.4782 9.41684 12.841 9.04961 12.841 8.5966C12.841 8.14359 12.4782 7.77637 12.0315 7.77637Z" fill="#4BB5A0"/>
<path d="M11.6452 13.0274C11.199 12.6848 10.6147 12.4961 9.99998 12.4961C9.38525 12.4961 8.80096 12.6848 8.35475 13.0274C7.86775 13.4014 7.58838 13.9345 7.58838 14.49C7.58838 15.0455 7.86771 15.5786 8.35475 15.9525C8.801 16.2952 9.38525 16.4838 9.99998 16.4838C10.6147 16.4838 11.199 16.2952 11.6452 15.9525C12.1322 15.5786 12.4116 15.0455 12.4116 14.49C12.4116 13.9345 12.1323 13.4014 11.6452 13.0274ZM9.99998 15.2594C9.36756 15.2594 8.81283 14.8998 8.81283 14.49C8.81283 14.0801 9.36756 13.7205 9.99998 13.7205C10.6324 13.7205 11.1871 14.0801 11.1871 14.4899C11.1871 14.8998 10.6324 15.2594 9.99998 15.2594Z" fill="#4BB5A0"/>
</g>
<defs>
<clipPath id="clip0">
<rect width="20" height="20" fill="white"/>
</clipPath>
</defs>
</svg>
