<svg width="139" height="10" viewBox="0 0 139 10" fill="none" xmlns="http://www.w3.org/2000/svg">
<path d="M14.5452 4.37653L11.2278 6.40989L11.9918 9.26892L7.85864 7.93357L3.72551 9.26892L4.48952 6.40989L1.17212 4.37653L5.77629 3.94461L7.85864 1.35254L9.941 3.94461L14.5452 4.37653Z" fill="#FF7898"/>
<path d="M0.997288 3.65501C0.558293 3.69633 0.194371 3.88807 0.0575002 4.15104C-0.0798289 4.41372 0.0332387 4.70204 0.349553 4.89606L3.23346 6.66362L2.56925 9.14914C2.49646 9.42179 2.67728 9.69644 3.03662 9.85884C3.39551 10.0212 3.87158 10.0435 4.26526 9.9161L7.8587 8.75511L11.4521 9.9161C11.8458 10.0435 12.3219 10.0212 12.6808 9.85884C13.0401 9.69644 13.2209 9.42179 13.1482 9.14914L12.4839 6.66362L15.3679 4.89606C15.6842 4.70233 15.7972 4.41372 15.6599 4.15104C15.5226 3.88835 15.1591 3.69633 14.7201 3.65501L10.7174 3.27979L8.90698 1.02647C8.70831 0.779175 8.30273 0.623047 7.8587 0.623047C7.41467 0.623047 7.00909 0.779175 6.81043 1.02619L4.99997 3.27979L0.997288 3.65501ZM6.82462 4.2707L7.8587 2.98321L8.89279 4.2707C9.06354 4.48295 9.38946 4.63025 9.76666 4.66586L12.0532 4.88011L10.4057 5.8901C10.1338 6.05649 10.0093 6.29524 10.072 6.52943L10.4515 7.9494L8.39886 7.28614C8.22949 7.23144 8.0441 7.20409 7.8587 7.20409C7.67377 7.20409 7.48837 7.23144 7.319 7.28614L5.26639 7.9494L5.64588 6.52943C5.70813 6.29524 5.58408 6.05677 5.31217 5.8901L3.66422 4.88011L5.9512 4.66586C6.32794 4.63025 6.65387 4.48295 6.82462 4.2707Z" fill="#591200"/>
<path d="M45.2627 4.37652L41.9453 6.40989L42.7093 9.26892L38.5761 7.93357L34.4429 9.26892L35.207 6.40989L31.8895 4.37652L36.4937 3.94461L38.5761 1.35254L40.6585 3.94461L45.2627 4.37652Z" fill="#FF7898"/>
<path d="M31.7147 3.65501C31.2757 3.69633 30.9118 3.88807 30.7749 4.15104C30.6376 4.41372 30.7506 4.70204 31.067 4.89606L33.9509 6.66362L33.2867 9.14914C33.2139 9.42179 33.3947 9.69644 33.754 9.85884C34.1129 10.0212 34.589 10.0435 34.9827 9.9161L38.5761 8.75511L42.1696 9.9161C42.5632 10.0435 43.0393 10.0212 43.3982 9.85884C43.7575 9.69644 43.9384 9.42179 43.8656 9.14914L43.2014 6.66362L46.0853 4.89606C46.4016 4.70233 46.5146 4.41372 46.3773 4.15104C46.24 3.88835 45.8765 3.69633 45.4375 3.65501L41.4348 3.27979L39.6244 1.02647C39.4257 0.779175 39.0201 0.623047 38.5761 0.623047C38.1321 0.623047 37.7265 0.779175 37.5278 1.02619L35.7174 3.27979L31.7147 3.65501ZM37.542 4.2707L38.5761 2.98321L39.6102 4.2707C39.7809 4.48295 40.1069 4.63025 40.4841 4.66586L42.7706 4.88011L41.1231 5.8901C40.8512 6.05649 40.7267 6.29524 40.7894 6.52943L41.1689 7.9494L39.1163 7.28614C38.9469 7.23144 38.7615 7.20409 38.5761 7.20409C38.3912 7.20409 38.2058 7.23144 38.0364 7.28614L35.9838 7.9494L36.3633 6.52943C36.4255 6.29524 36.3015 6.05677 36.0296 5.8901L34.3816 4.88011L36.6686 4.66586C37.0454 4.63025 37.3713 4.48295 37.542 4.2707Z" fill="#591200"/>
<path d="M75.9801 4.37652L72.6627 6.40989L73.4267 9.26892L69.2935 7.93357L65.1604 9.26892L65.9244 6.40989L62.6069 4.37652L67.2111 3.94461L69.2935 1.35254L71.3759 3.94461L75.9801 4.37652Z" fill="#FF7898"/>
<path d="M62.4321 3.65501C61.9931 3.69633 61.6292 3.88807 61.4923 4.15104C61.355 4.41372 61.4681 4.70204 61.7844 4.89606L64.6683 6.66362L64.0041 9.14914C63.9313 9.42179 64.1121 9.69644 64.4715 9.85884C64.8304 10.0212 65.3064 10.0435 65.7001 9.9161L69.2936 8.75511L72.887 9.9161C73.2807 10.0435 73.7568 10.0212 74.1157 9.85884C74.475 9.69644 74.6559 9.42179 74.5831 9.14914L73.9189 6.66362L76.8028 4.89606C77.1191 4.70233 77.2322 4.41372 77.0948 4.15104C76.9575 3.88835 76.594 3.69633 76.155 3.65501L72.1523 3.27979L70.3419 1.02647C70.1432 0.779175 69.7376 0.623047 69.2936 0.623047C68.8495 0.623047 68.444 0.779175 68.2453 1.02619L66.4348 3.27979L62.4321 3.65501ZM68.2595 4.2707L69.2936 2.98321L70.3277 4.2707C70.4984 4.48295 70.8244 4.63025 71.2016 4.66586L73.4881 4.88011L71.8406 5.8901C71.5687 6.05649 71.4442 6.29524 71.5069 6.52943L71.8864 7.9494L69.8337 7.28614C69.6644 7.23144 69.479 7.20409 69.2936 7.20409C69.1086 7.20409 68.9232 7.23144 68.7539 7.28614L66.7012 7.9494L67.0807 6.52943C67.143 6.29524 67.0189 6.05677 66.747 5.8901L65.0991 4.88011L67.3861 4.66586C67.7628 4.63025 68.0887 4.48295 68.2595 4.2707Z" fill="#591200"/>
<path d="M106.698 4.37652L103.38 6.40989L104.144 9.26892L100.011 7.93357L95.8779 9.26892L96.6419 6.40989L93.3245 4.37652L97.9286 3.94461L100.011 1.35254L102.093 3.94461L106.698 4.37652Z" fill="#FF7898"/>
<path d="M93.1496 3.65501C92.7106 3.69633 92.3467 3.88807 92.2098 4.15104C92.0725 4.41372 92.1856 4.70204 92.5019 4.89606L95.3858 6.66362L94.7216 9.14914C94.6488 9.42179 94.8296 9.69644 95.189 9.85884C95.5479 10.0212 96.0239 10.0435 96.4176 9.9161L100.011 8.75511L103.604 9.9161C103.998 10.0435 104.474 10.0212 104.833 9.85884C105.192 9.69644 105.373 9.42179 105.301 9.14914L104.636 6.66362L107.52 4.89606C107.837 4.70233 107.95 4.41372 107.812 4.15104C107.675 3.88835 107.311 3.69633 106.872 3.65501L102.87 3.27979L101.059 1.02647C100.861 0.779175 100.455 0.623047 100.011 0.623047C99.567 0.623047 99.1614 0.779175 98.9628 1.02619L97.1523 3.27979L93.1496 3.65501ZM98.977 4.2707L100.011 2.98321L101.045 4.2707C101.216 4.48295 101.542 4.63025 101.919 4.66586L104.206 4.88011L102.558 5.8901C102.286 6.05649 102.162 6.29524 102.224 6.52943L102.604 7.9494L100.551 7.28614C100.382 7.23144 100.196 7.20409 100.011 7.20409C99.8261 7.20409 99.6407 7.23144 99.4713 7.28614L97.4187 7.9494L97.7982 6.52943C97.8605 6.29524 97.7364 6.05677 97.4645 5.8901L95.8166 4.88011L98.1035 4.66586C98.4803 4.63025 98.8062 4.48295 98.977 4.2707Z" fill="#591200"/>
<path d="M137.415 4.37652L134.098 6.40989L134.862 9.26892L130.728 7.93357L126.595 9.26892L127.359 6.40989L124.042 4.37652L128.646 3.94461L130.728 1.35254L132.811 3.94461L137.415 4.37652Z" fill="#FF7898"/>
<path d="M123.867 3.65501C123.428 3.69633 123.064 3.88807 122.927 4.15104C122.79 4.41372 122.903 4.70204 123.219 4.89606L126.103 6.66362L125.439 9.14914C125.366 9.42179 125.547 9.69644 125.906 9.85884C126.265 10.0212 126.741 10.0435 127.135 9.9161L130.728 8.75511L134.322 9.9161C134.716 10.0435 135.192 10.0212 135.551 9.85884C135.91 9.69644 136.091 9.42179 136.018 9.14914L135.354 6.66362L138.238 4.89606C138.554 4.70233 138.667 4.41372 138.53 4.15104C138.392 3.88835 138.029 3.69633 137.59 3.65501L133.587 3.27979L131.777 1.02647C131.578 0.779175 131.172 0.623047 130.728 0.623047C130.284 0.623047 129.879 0.779175 129.68 1.02619L127.87 3.27979L123.867 3.65501ZM129.694 4.2707L130.728 2.98321L131.763 4.2707C131.933 4.48295 132.259 4.63025 132.636 4.66586L134.923 4.88011L133.275 5.8901C133.004 6.05649 132.879 6.29524 132.942 6.52943L133.321 7.9494L131.269 7.28614C131.099 7.23144 130.914 7.20409 130.728 7.20409C130.544 7.20409 130.358 7.23144 130.189 7.28614L128.136 7.9494L128.516 6.52943C128.578 6.29524 128.454 6.05677 128.182 5.8901L126.534 4.88011L128.821 4.66586C129.198 4.63025 129.524 4.48295 129.694 4.2707Z" fill="#591200"/>
</svg>
